<svg version="1.1" id="Layer_1" xmlns="http://www.w3.org/2000/svg" xmlns:xlink="http://www.w3.org/1999/xlink" x="0px" y="0px"
	 width="100%" viewBox="0 0 336 288" enable-background="new 0 0 336 288" xml:space="preserve" stroke-width="1.2">
<path fill="#ffffff" opacity="1.000000" stroke="none" stroke-width="6" stroke-linecap="round" stroke-linejoin="round"
	d="
M315.375000,289.000000 
	C312.850464,276.331177 307.738831,264.618927 303.194885,252.731857 
	C302.336731,250.486877 301.639679,248.760666 303.097809,246.277283 
	C304.050842,244.654221 303.406525,242.075943 303.425110,239.925064 
	C303.468475,234.902023 300.462677,229.170364 297.863434,229.262848 
	C294.496155,229.382660 288.036560,237.782822 288.341003,241.432007 
	C288.756683,246.415527 289.123413,251.354340 284.701904,255.208359 
	C283.311646,256.420166 282.672058,258.493164 281.196167,261.013306 
	C280.009644,257.202332 280.917786,254.551422 283.113983,252.532501 
	C286.305603,249.598465 287.219177,246.591293 285.784485,242.305328 
	C284.877930,239.597076 285.186829,236.393799 286.169617,233.370117 
	C281.220306,230.189697 276.562805,227.204269 270.159729,227.772934 
	C265.360413,228.199142 262.217316,230.126373 260.544495,234.299118 
	C259.728241,236.335281 258.506378,237.665329 256.802917,238.739868 
	C244.864868,246.270111 234.992081,255.923157 226.024216,266.828125 
	C220.843048,273.128448 213.711990,277.578125 204.959595,277.780090 
	C201.846771,277.851959 199.077759,278.600403 196.607330,280.236633 
	C191.702606,277.225647 187.050262,276.756104 182.185806,280.200104 
	C178.467621,282.832581 167.783752,282.300781 164.406708,279.214325 
	C162.182983,277.181976 156.393723,278.280579 158.399399,272.129517 
	C159.439453,268.939850 158.655411,265.317444 160.025101,261.898804 
	C161.672531,257.786896 164.027908,253.206589 158.820938,249.506775 
	C157.478775,248.553116 156.252930,247.872864 154.734314,248.739487 
	C150.231628,251.308975 145.435745,253.054855 140.415268,254.326889 
	C135.541122,255.561874 135.432037,258.888336 137.579666,262.355835 
	C135.706192,264.222565 134.417847,261.486633 132.885269,262.818329 
	C131.964203,265.342957 134.661163,267.271851 134.403015,269.761658 
	C134.168884,272.019714 135.095108,274.769867 131.149353,276.546783 
	C133.718185,270.053955 130.578522,265.943237 127.138596,261.936554 
	C126.718773,261.447571 125.869469,260.892120 125.936333,260.485291 
	C127.073273,253.567261 121.704376,253.893143 117.918785,254.114090 
	C112.509949,254.429779 106.191429,253.387756 103.046288,260.191589 
	C102.327446,261.746643 99.934746,262.572968 98.242905,263.622650 
	C95.727325,265.183411 94.098671,267.196320 93.338577,270.198883 
	C91.676132,276.765900 83.395317,280.023041 77.841629,276.258209 
	C76.043518,275.039307 74.724747,275.056946 72.823151,275.657593 
	C68.658562,276.972931 64.759087,276.633087 61.917206,272.721466 
	C60.784672,271.162628 59.301113,270.316040 57.362568,269.972260 
	C51.405632,268.915833 49.410751,264.941040 52.544205,259.740753 
	C56.160343,253.739441 53.969196,246.666138 56.546150,240.511963 
	C56.931717,239.591187 56.220215,238.376724 55.042439,238.348282 
	C53.277100,238.305618 51.315079,237.930435 49.923023,239.507904 
	C49.049919,240.497284 48.325508,241.617874 47.256744,242.860291 
	C45.504208,237.802063 49.588730,235.275818 52.516930,231.862762 
	C53.492096,232.930466 54.447365,233.976379 54.992508,234.573257 
	C67.677383,225.841110 79.564667,216.287781 93.883774,211.087021 
	C106.423775,206.532410 119.146034,207.727676 131.831665,212.053207 
	C142.030792,215.530869 152.493103,218.535812 163.202530,212.823761 
	C169.108185,209.673889 172.590500,204.670029 174.410873,198.779953 
	C177.018860,190.341461 177.325577,181.610489 176.674561,172.673615 
	C176.252258,166.876221 174.393463,161.325562 174.555405,155.492203 
	C174.653748,151.949814 170.593277,149.838318 170.795197,145.539276 
	C174.776840,147.225815 176.060333,150.199524 176.602936,153.666824 
	C177.644058,160.319672 179.013611,166.949356 179.563080,173.644775 
	C180.566727,185.874344 179.481583,197.788223 172.515091,208.505661 
	C167.915970,215.581055 160.226181,217.316971 153.078903,219.664291 
	C149.756516,220.755417 146.433517,222.911438 142.576523,222.121841 
	C141.643066,220.490402 144.421448,220.163269 143.531357,218.413956 
	C137.330200,216.382416 130.903259,212.616272 124.485283,212.631454 
	C117.781754,212.647293 111.343002,210.635986 104.753891,211.242386 
	C98.772964,211.792801 92.941399,213.213455 87.725029,216.407974 
	C79.373352,221.522552 71.008568,226.635666 63.674168,233.196335 
	C61.521637,235.121796 60.104385,237.702347 59.516041,240.483551 
	C58.348446,246.003006 55.074310,251.319550 57.429180,257.251831 
	C58.995781,261.198364 59.942860,264.954071 66.273918,264.294373 
	C69.251785,263.984100 73.384941,267.098511 76.886505,268.803192 
	C80.724297,270.671570 84.276184,270.460754 87.105743,268.232300 
	C92.477737,264.001556 99.429512,261.469421 103.037178,255.363831 
	C105.468430,251.249161 108.533028,248.654160 112.916969,247.193832 
	C117.166779,245.778198 121.280060,243.885406 125.600960,242.778625 
	C127.799225,242.215530 130.470444,241.363083 133.263535,243.720993 
	C126.672066,244.786667 120.992676,247.084381 114.993362,249.630676 
	C127.995125,255.184357 141.064957,254.708466 151.042526,245.477066 
	C151.999207,244.591949 153.256821,243.996674 154.441772,243.399948 
	C159.085266,241.061539 161.064972,241.723480 163.448563,246.314178 
	C164.052734,247.477798 164.451263,248.820343 166.802338,249.543198 
	C182.048294,233.972870 202.124527,229.377426 223.404694,228.131653 
	C225.091095,228.032928 227.149414,227.626755 228.411621,229.934433 
	C226.583679,233.007202 223.483459,231.719070 220.944839,231.898804 
	C209.019135,232.743179 196.938019,233.130890 186.128555,238.969513 
	C178.372131,243.159134 171.328995,248.492676 165.541321,255.275513 
	C162.808838,258.477844 163.938339,266.810150 167.373749,269.802826 
	C171.576721,273.464142 176.676208,275.283569 182.000061,275.426636 
	C190.269165,275.648895 198.578873,275.293884 206.837341,274.705688 
	C214.606323,274.152344 220.453766,269.448395 225.114685,263.800781 
	C230.701904,257.030731 236.203323,250.211533 242.974945,244.626999 
	C248.494003,240.075424 251.566330,233.681259 256.128174,228.432419 
	C257.413452,226.953583 257.650818,225.003052 257.081696,223.208344 
	C255.152985,217.126114 256.715820,211.082321 256.890381,204.995026 
	C257.275116,191.577148 258.358948,177.817825 254.952271,164.898331 
	C252.018768,153.773254 251.086594,141.177628 241.824677,132.601715 
	C237.067932,128.197311 231.299072,125.801880 224.716080,123.775909 
	C217.790833,121.644592 211.498093,119.172012 204.194382,120.269554 
	C203.572388,120.363022 202.518875,119.636299 202.144775,119.006226 
	C198.908371,113.555023 194.854370,115.217598 190.626694,117.495171 
	C188.135376,118.837326 185.581985,120.068199 183.027390,121.288170 
	C176.823715,124.250809 176.365128,124.066597 173.902084,117.215118 
	C168.724976,120.925903 164.976379,118.256912 161.592514,114.222610 
	C160.189682,112.550117 158.437775,112.594254 156.615753,113.516937 
	C148.608459,117.571861 140.978577,122.382500 132.498672,125.493439 
	C130.477036,126.235092 130.235138,127.691460 131.190475,129.506805 
	C131.879868,130.816803 132.571716,132.059677 132.605499,133.686844 
	C132.791595,142.652069 127.875740,147.369461 118.676117,146.884247 
	C111.438927,146.502548 106.201706,139.440704 107.272232,131.605499 
	C107.604500,129.173508 109.650642,128.109222 110.999123,126.477104 
	C112.121399,125.118782 114.121964,124.030144 113.304222,121.862671 
	C111.265404,116.458702 107.225060,112.223465 102.212440,110.327316 
	C98.090591,108.768112 92.873856,108.457367 89.238594,113.363602 
	C86.999710,116.385254 83.801292,118.697983 81.020386,121.314873 
	C80.023407,122.253052 79.119621,123.205727 79.708290,125.293739 
	C87.707146,121.884796 94.819359,123.545143 99.193260,131.026077 
	C102.020607,135.861847 98.770950,140.579788 95.313477,144.018814 
	C90.457787,148.848587 84.584229,151.244049 77.713875,147.979538 
	C74.371300,159.876465 76.402802,172.105667 85.893158,177.300323 
	C89.828156,179.454193 93.299187,182.386765 97.532295,184.053558 
	C111.935905,189.725037 123.165932,182.202881 134.435944,175.112823 
	C136.036942,174.105606 137.894608,171.856064 136.873932,170.046402 
	C133.502182,164.068268 137.227463,159.874268 140.105453,155.611710 
	C142.505508,152.057007 145.562256,148.943390 148.356949,145.658890 
	C149.164841,144.709396 150.134308,144.130707 151.659256,145.155243 
	C151.287811,149.103638 147.606415,150.918945 145.495529,153.630035 
	C143.791260,155.818878 142.223145,158.161377 140.422867,160.216843 
	C137.261398,163.826416 138.470261,166.749756 140.549667,170.350586 
	C146.117950,167.116852 147.621582,161.345123 150.646652,156.772781 
	C152.283356,154.298935 153.233215,151.377274 154.562958,148.692337 
	C157.318390,143.128799 160.487030,137.964630 165.885635,134.389923 
	C168.753754,132.490799 171.654617,130.430313 173.516220,127.307365 
	C174.193359,126.171387 175.182098,125.119171 177.264252,126.305557 
	C175.516449,130.087219 172.742813,133.149429 169.395782,135.285553 
	C163.481049,139.060410 159.918808,144.484406 156.968674,150.549728 
	C151.780365,161.216629 145.858398,170.947815 135.966721,178.506943 
	C119.131409,191.372345 95.494171,191.151352 80.005928,176.629364 
	C76.733498,173.561081 74.809807,169.536591 74.966370,165.547760 
	C75.384346,154.898544 71.847160,144.446747 73.703606,133.799362 
	C74.385223,129.890076 75.254700,126.013550 76.113762,121.748322 
	C68.956406,120.725586 62.045818,119.144669 57.281902,127.348953 
	C55.725685,124.515923 54.721428,122.687706 53.546974,120.549660 
	C56.993217,118.237144 57.450848,114.248009 59.128258,110.902931 
	C67.284012,94.638809 77.172493,79.500954 89.016380,65.681664 
	C93.170616,60.834560 98.629478,57.478336 103.908348,54.057861 
	C116.916420,45.629204 130.230148,37.804211 145.722015,34.599041 
	C165.457962,30.515800 184.454971,33.194870 203.509857,39.166321 
	C220.528458,44.499638 234.126465,54.683655 247.512329,65.795006 
	C255.395370,72.338554 262.113190,79.908043 268.793549,87.483292 
	C274.971313,94.488640 278.626740,103.230774 282.298431,111.805237 
	C282.817383,113.017067 283.043762,114.379555 283.695648,115.504196 
	C285.460083,118.548203 287.065033,122.663902 284.136444,124.534439 
	C281.268951,126.365959 276.880432,128.285019 272.988861,125.580864 
	C263.380707,118.904427 251.761414,117.312912 241.440735,112.636978 
	C239.628723,114.244568 239.692062,116.452461 238.677032,118.141037 
	C236.104752,122.420197 235.654800,125.631104 241.348679,128.367630 
	C245.838562,130.525513 248.801422,135.054443 250.191452,140.032455 
	C252.111557,146.908752 253.928421,153.795425 256.996246,160.284882 
	C258.371277,163.193558 257.938721,166.539795 258.181427,169.535187 
	C259.233521,182.519974 260.682343,195.493713 259.373627,208.644867 
	C258.790527,214.504578 258.526093,220.848587 260.840942,226.747696 
	C269.761749,224.742020 278.266083,224.019455 286.637268,228.536957 
	C288.623444,229.608810 291.607391,230.467270 294.306244,227.587128 
	C296.983856,224.729691 301.478180,226.315521 303.251251,229.951630 
	C304.872742,233.276779 305.782349,236.617569 305.510162,240.489868 
	C305.066650,246.799393 306.039795,253.175171 308.641418,258.892059 
	C312.943390,268.345245 314.152893,278.685425 317.930237,288.635864 
	C317.250000,289.000000 316.500000,289.000000 315.375000,289.000000 
M68.268829,102.747917 
	C65.724236,106.615982 63.355652,110.566910 61.951809,115.761185 
	C64.398010,115.463142 65.910423,116.788353 67.674080,117.539406 
	C70.326286,118.668839 72.984291,118.450150 75.888901,117.919205 
	C84.375175,116.367935 88.603386,108.132950 96.698044,106.089584 
	C94.786285,101.472130 90.411583,97.911003 93.489868,93.206436 
	C94.435280,91.761551 97.306305,92.016861 99.406090,93.319275 
	C95.123222,97.165039 95.813873,102.674286 101.109398,105.708626 
	C107.185616,109.190300 111.942307,113.845520 115.855759,119.572372 
	C118.469978,123.397949 125.471542,124.833580 129.567963,123.533394 
	C139.432678,120.402397 147.576126,114.923775 155.301575,108.056740 
	C160.146027,103.750580 163.585617,100.081474 162.786469,93.147156 
	C162.190948,87.979782 165.694595,85.623505 171.145844,86.617226 
	C170.770020,88.352089 169.367905,89.125183 167.941177,89.387848 
	C163.919022,90.128387 163.554779,93.231308 164.632828,95.819916 
	C166.441315,100.162445 165.032455,103.550407 162.985901,107.096107 
	C162.176346,108.498711 160.759140,110.381851 162.800858,111.433617 
	C165.388412,112.766571 166.264618,117.552689 170.434784,115.580795 
	C175.060654,113.393433 178.189758,113.773529 178.455322,119.784485 
	C181.931732,119.629723 184.195526,117.404083 186.904999,116.259521 
	C190.259384,114.842537 193.337158,112.780609 197.165390,112.568336 
	C201.710373,112.316338 202.955399,118.338638 206.548889,118.066101 
	C210.393631,117.774498 214.417572,114.947075 217.930008,117.913879 
	C223.311371,122.459305 229.126282,120.525803 234.729523,120.288857 
	C238.402313,114.477943 239.305862,109.242996 233.834900,103.986916 
	C231.611633,101.850983 230.625931,98.643723 232.524536,95.273262 
	C233.845810,92.927727 233.178940,90.615837 230.844193,89.211945 
	C223.592102,84.851219 218.483002,76.930763 209.080917,76.099648 
	C208.336334,76.033821 207.602875,75.320412 207.835022,74.136383 
	C213.316940,73.893486 217.962006,75.583084 222.103943,79.341187 
	C225.292389,82.234154 228.828522,84.830132 232.505478,87.074051 
	C236.136108,89.289703 237.348953,91.812706 235.374969,95.703072 
	C233.922455,98.565735 234.514908,101.118416 236.620956,103.505196 
	C240.048141,107.389191 244.279755,110.637680 248.835922,112.418442 
	C257.650818,115.863693 266.794861,118.382332 274.872681,123.602272 
	C277.170166,125.086945 279.950836,123.990723 281.871094,122.540848 
	C284.045441,120.899117 281.855408,119.009422 281.268860,117.214516 
	C277.131104,104.552460 270.573303,93.433121 261.437286,83.632751 
	C244.021194,64.950195 225.346436,48.456009 200.134964,40.739403 
	C183.278732,35.580120 166.490402,33.633976 149.078140,36.695473 
	C131.036163,39.867691 115.902924,49.016434 101.423309,59.476421 
	C98.865967,61.323826 95.321121,62.475075 93.798065,66.454529 
	C99.109077,66.170052 99.934845,59.508961 105.419693,59.635315 
	C104.015411,63.920849 100.746452,66.088875 98.016212,68.469734 
	C86.676086,78.358711 76.707664,89.394798 68.268829,102.747917 
M115.083351,130.709274 
	C116.315193,129.577042 118.309402,128.961182 118.017349,126.650314 
	C113.082474,127.020950 108.442848,132.042450 109.942986,135.646057 
	C113.754868,144.802902 118.003777,146.215149 126.683029,142.228470 
	C129.657043,140.862411 131.040482,137.529251 130.221313,134.194199 
	C129.572205,131.551422 127.893204,129.402100 124.126396,130.481308 
	C124.978439,133.430084 124.566780,135.687622 121.417068,136.961090 
	C118.458374,138.157333 116.172935,136.832809 114.083458,135.331726 
	C112.352341,134.088120 113.125870,132.408936 115.083351,130.709274 
M88.431503,138.843506 
	C86.561966,140.383911 84.692421,141.924301 82.844101,143.447235 
	C81.185944,142.533295 81.189034,140.080032 79.034988,140.255035 
	C78.646866,145.213745 81.110641,147.749481 85.519165,146.546921 
	C90.799942,145.106430 94.622993,141.639572 96.526276,136.519638 
	C97.808388,133.070724 96.050972,130.419174 93.100639,128.516785 
	C91.594032,127.545311 90.420654,128.299088 89.778091,129.518524 
	C89.355949,130.319672 87.444138,130.984116 89.497177,132.595581 
	C91.640160,134.277649 90.110573,136.504318 88.431503,138.843506 
M71.894791,272.351898 
	C70.057236,268.842926 66.899582,268.370331 62.899277,268.307129 
	C65.020721,272.244385 67.301109,274.521790 71.894791,272.351898 
M164.783371,271.735474 
	C163.842972,270.461304 162.902573,269.187103 161.727188,267.594513 
	C159.887543,270.705017 159.963211,272.704956 162.127899,273.995392 
	C163.673538,274.916779 165.802933,275.693848 164.783371,271.735474 
M86.386330,271.425415 
	C84.248245,271.827972 82.701492,272.979279 81.362785,274.996521 
	C87.006058,275.142700 88.069069,274.397034 86.386330,271.425415 
M57.923161,266.200470 
	C57.864712,264.159668 56.943577,262.657532 55.100037,261.229736 
	C53.800705,264.363464 53.480892,266.524292 57.923161,266.200470 
z"/>
<path fill="#000000" opacity="1.000000" stroke="none" 
	d="
M46.747025,243.242905 
	C48.050774,245.834045 47.759102,248.592987 47.157555,251.628860 
	C44.768116,263.687775 42.779041,275.828857 43.933971,288.609833 
	C43.250000,289.000000 42.500000,289.000000 41.375000,289.000000 
	C40.668159,278.576172 41.934486,268.251068 43.539539,258.013184 
	C44.297062,253.181290 44.575489,248.164276 46.747025,243.242905 
z"/>
</svg>
